<svg width="45" height="45" viewBox="0 0 45 45" fill="none" xmlns="http://www.w3.org/2000/svg">
<path d="M32.0192 20.7692C32.0192 22.652 31.4609 24.4924 30.415 26.0578C29.369 27.6233 27.8823 28.8434 26.1429 29.5638C24.4034 30.2843 22.4894 30.4728 20.6429 30.1055C18.7963 29.7382 17.1002 28.8316 15.7689 27.5003C14.4376 26.169 13.531 24.4729 13.1637 22.6263C12.7964 20.7798 12.9849 18.8658 13.7054 17.1264C14.4259 15.387 15.646 13.9003 17.2114 12.8543C18.7768 11.8083 20.6173 11.25 22.5 11.25C25.0238 11.2529 27.4434 12.2567 29.228 14.0413C31.0125 15.8259 32.0164 18.2454 32.0192 20.7692ZM45 22.5C45 26.9501 43.6804 31.3002 41.2081 35.0003C38.7357 38.7004 35.2217 41.5843 31.1104 43.2873C26.999 44.9902 22.475 45.4358 18.1105 44.5677C13.7459 43.6995 9.73679 41.5566 6.59011 38.4099C3.44342 35.2632 1.30051 31.2541 0.432341 26.8895C-0.435826 22.525 0.0097489 18.001 1.71272 13.8896C3.41569 9.77828 6.29957 6.26426 9.99968 3.79193C13.6998 1.3196 18.0499 0 22.5 0C28.4654 0.00629961 34.1847 2.37885 38.4029 6.59705C42.6211 10.8153 44.9937 16.5346 45 22.5ZM41.5385 22.5C41.5357 19.9374 41.0162 17.4018 40.0109 15.0446C39.0057 12.6875 37.5354 10.5572 35.688 8.78135C33.8407 7.00545 31.6541 5.62036 29.2591 4.70891C26.8641 3.79745 24.3099 3.37836 21.7493 3.47668C11.5594 3.87043 3.43342 12.3577 3.46155 22.5541C3.47132 27.1958 5.18328 31.6728 8.27309 35.1368C9.53136 33.3117 11.1298 31.7463 12.9808 30.5264C13.1386 30.4222 13.3262 30.3725 13.5149 30.385C13.7036 30.3975 13.883 30.4715 14.0257 30.5957C16.3778 32.6301 19.3837 33.7497 22.4935 33.7497C25.6033 33.7497 28.6092 32.6301 30.9613 30.5957C31.104 30.4715 31.2834 30.3975 31.4721 30.385C31.6608 30.3725 31.8484 30.4222 32.0063 30.5264C33.8596 31.7456 35.4602 33.311 36.7204 35.1368C39.8255 31.6602 41.5408 27.1614 41.5385 22.5Z" fill="black"/>
</svg>
